<?xml version="1.0" encoding="utf-8"?>
<!-- Generator: Adobe Illustrator 21.0.0, SVG Export Plug-In . SVG Version: 6.00 Build 0)  -->
<svg version="1.1" id="Vrstva_1" xmlns="http://www.w3.org/2000/svg" xmlns:xlink="http://www.w3.org/1999/xlink" x="0px" y="0px"
	 viewBox="0 0 425.5 247.7" style="enable-background:new 0 0 425.5 247.7;" xml:space="preserve">
<style type="text/css">
	.st0{fill:#FFFFFF;}
</style>
<g>
	<circle class="st0" cx="81.2" cy="157.3" r="24"/>
	<ellipse class="st0" cx="109.6" cy="224.1" rx="24" ry="23.6"/>
	<circle class="st0" cx="24" cy="24" r="24"/>
	<circle class="st0" cx="52.4" cy="90.9" r="24"/>
	<g>
		<path class="st0" d="M104,99.2l20.1-25.8H104v-6.6h30.1v5.7L114,98.3h20.1v6.6H104C104,104.8,104,99.2,104,99.2z"/>
		<path class="st0" d="M151.1,88.2c1.7,0,3.9,0,6.1,0.4v-1.7c0-3.5-2.2-5.2-5.7-5.2c-3.5,0-5.7,1.7-5.7,4.4h-7
			c0.4-5.7,4.4-10,12.7-10c7.9,0,12.7,3.9,12.7,11.4v17.5h-7v-3.9c-2.2,3.1-5.7,4.4-10,4.4c-5.2,0-9.2-2.6-9.2-8.3
			C138,91.7,142.8,88.2,151.1,88.2z M149.4,100c4.4,0,7.4-3.5,7.9-6.6c-1.7,0-3.9-0.4-5.7-0.4c-4.8,0-6.6,1.3-6.6,3.5
			C145,99.2,146.8,100,149.4,100z"/>
		<path class="st0" d="M170.4,64.7h7v15.7c1.7-2.6,5.2-4.4,8.7-4.4c6.6,0,11.4,4.8,11.4,11.4v17h-7V88.7c0-3.9-2.6-6.6-6.6-6.6
			c-3.9,0-6.6,2.6-6.6,6.6v16.2h-7V64.7z"/>
		<path class="st0" d="M204,76.9h7v3.9c2.2-3.1,6.1-4.8,9.6-3.9v6.6c-5.7-0.9-9.6,1.7-9.6,6.1v15.7h-7V76.9z"/>
		<path class="st0" d="M235,88.2c1.7,0,3.9,0,6.1,0.4v-1.7c0-3.5-2.2-5.2-5.7-5.2c-3.5,0-5.7,1.7-5.7,4.4h-6.6
			c0.4-5.7,4.4-10,12.7-10c7.9,0,12.7,3.9,12.7,11.4v17.5h-7v-3.9c-2.2,3.1-5.7,4.4-10,4.4c-5.2,0-9.2-2.6-9.2-8.3
			C222.3,91.7,226.7,88.2,235,88.2z M233.7,100c4.4,0,7.4-3.5,7.9-6.6c-1.7-0.4-3.9-0.4-5.7-0.4c-4.8,0-6.6,1.3-6.6,3.5
			C229.3,99.2,231.1,100,233.7,100z"/>
		<path class="st0" d="M276.5,100.5c-2.2,3.1-5.7,4.8-9.6,4.8c-7.4,0-13.1-6.1-13.1-14.9c0-8.3,5.7-14.9,13.1-14.9
			c3.9,0,7.4,1.7,9.6,4.4V63.8h7V104h-7V100.5z M268.6,99.6c4.4,0,7.9-3.5,7.9-8.7c0-5.2-3.5-8.7-7.9-8.7s-7.9,3.5-7.9,8.7
			C260.8,96.1,264.3,99.6,268.6,99.6z"/>
		<path class="st0" d="M289.6,76.9h7v3.5c1.7-2.6,5.2-4.4,8.7-4.4c6.6,0,11.4,4.8,11.4,11.4v17h-7V88.7c0-3.9-2.6-6.6-6.6-6.6
			s-6.6,2.6-6.6,6.6v16.2h-7V76.9z"/>
		<path class="st0" d="M326.7,64.7c2.2,0,3.9,1.7,3.9,3.9c0,2.2-1.7,3.9-3.9,3.9c-2.2,0-3.9-1.7-3.9-3.9
			C322.8,66.4,324.6,64.7,326.7,64.7z M323.3,76.9h7v28.4h-7V76.9z"/>
		<path class="st0" d="M350.8,76c7.4,0,13.1,4.8,14,10.9h-7.4c-0.9-3.1-3.5-5.2-6.6-5.2c-4.4,0-7.4,3.5-7.4,8.7
			c0,5.2,3.1,8.7,7.4,8.7c3.5,0,5.7-2.2,6.6-5.2h7.4c-0.9,6.6-6.6,10.9-14,10.9c-8.7,0-14.9-6.1-14.9-14.9
			C335.9,82.1,342,76,350.8,76z"/>
		<path class="st0" d="M370,64.7h7v24.9l11.4-12.7h8.7l-11.4,11.8l12.7,16.2h-8.7l-8.7-10.9l-3.9,3.9v7h-7V64.7z"/>
		<path class="st0" d="M412.4,88.2c1.7,0,3.9,0,6.1,0.4v-1.7c0-3.5-2.2-5.2-5.7-5.2c-3.5,0-5.7,1.7-5.7,4.4h-7
			c0.4-5.7,4.4-10,12.7-10c7.9,0,12.7,3.9,12.7,11.4v17.5h-7v-3.9c-2.2,3.1-5.7,4.4-10,4.4c-5.2,0-9.2-2.6-9.2-8.3
			C399.3,91.7,403.6,88.2,412.4,88.2z M410.6,100c4.4,0,7.4-3.5,7.9-6.6c-1.7-0.4-3.9-0.4-5.7-0.4c-4.8,0-6.6,1.3-6.6,3.5
			C406.2,99.2,408,100,410.6,100z M414.1,63.8h8.3l-7,9.2h-6.1L414.1,63.8z"/>
	</g>
	<g>
		<path class="st0" d="M137.6,149h-5.7v-5.7h5.7v-1.7c0-7.9,3.5-12.2,14.4-10.9v6.1c-6.1-0.9-7.4,0.9-7.4,4.8v1.7h7.4v5.7h-7.4v22.7
			h-7V149z"/>
		<path class="st0" d="M166.4,155.1c1.7,0,3.9,0,6.1,0.4v-1.7c0-3.5-2.2-5.2-5.7-5.2s-5.7,1.7-5.7,4.4h-7c0.4-5.7,4.4-10,12.7-10
			c7.9,0,12.7,3.9,12.7,11.4v17.5h-7v-3.9c-2.2,3.1-5.7,4.4-10,4.4c-5.2,0-9.2-2.6-9.2-8.3C153.8,158.6,158.1,155.1,166.4,155.1z
			 M165.1,166.9c4.4,0,7.4-3.5,7.9-6.6c-1.7-0.4-3.9-0.4-5.7-0.4c-4.8,0-6.6,1.3-6.6,3.5C160.8,166,162.5,166.9,165.1,166.9z"/>
		<path class="st0" d="M186.1,131.5h7v24.9l11.4-12.7h8.7l-11.4,12.2l12.7,16.2h-8.7l-8.7-10.9l-3.9,3.9v6.6h-7V131.5z"/>
		<path class="st0" d="M223.2,143.3v16.2c0,4.4,2.6,7,6.6,7c3.9,0,6.6-2.6,6.6-7v-16.2h7v15.3c0,7.9-5.2,13.5-13.5,13.5
			c-8.3,0-13.5-5.2-13.5-13.5v-15.3H223.2z"/>
		<path class="st0" d="M249.4,131.5h7v40.2h-7V131.5z"/>
		<path class="st0" d="M266.5,135.9h7v7.9h8.7v5.7h-8.7v11.8c0,3.9,2.6,6.1,8.7,4.4v5.7c-10.9,2.6-15.7-2.6-15.7-10.5V149h-5.2v-5.7
			h5.2V135.9z"/>
		<path class="st0" d="M298.4,155.1c1.7,0,3.9,0,6.1,0.4v-1.7c0-3.5-2.2-5.2-5.7-5.2c-3.5,0-5.7,1.7-5.7,4.4h-7
			c0.4-5.7,4.4-10,12.7-10c7.9,0,12.7,3.9,12.7,11.4v17.5h-7v-3.9c-2.2,3.1-5.7,4.4-10,4.4c-5.2,0-9.2-2.6-9.2-8.3
			C285.2,158.6,290.1,155.1,298.4,155.1z M296.6,166.9c4.4,0,7.4-3.5,7.9-6.6c-1.7-0.4-3.9-0.4-5.7-0.4c-4.8,0-6.6,1.3-6.6,3.5
			C292.2,166,294,166.9,296.6,166.9z"/>
	</g>
	<g>
		<path class="st0" d="M76.4,0h7l13.1,18.3L109.2,0h7v38h-7.4V12.7L96.5,30.1L83.9,12.7V38h-7.4V0z"/>
		<path class="st0" d="M123.6,0h28.8v6.6h-21v9.2h18.3v6.6h-18.3v9.6h21v6.6h-28.8V0z"/>
		<path class="st0" d="M159,0h7l20.1,25.3V0h7.4v38h-7l-20.1-24.9v25.3H159V0z"/>
		<path class="st0" d="M200.5,0h15.3C227.1,0,235,8.3,235,19.2s-8.3,19.2-19.2,19.2h-15.3C200.5,38.4,200.5,0,200.5,0z M215.4,31.9
			c7,0,11.8-5.2,11.8-12.7c0-7-4.8-12.7-11.8-12.7h-7.4v25.3H215.4z"/>
		<path class="st0" d="M241.1,0H270v6.6h-21v9.2h18.3v6.6H249v9.6h21v6.6h-28.8V0z"/>
		<path class="st0" d="M276.5,0h7.9v31.9H304v6.6h-27.1V0H276.5z"/>
		<path class="st0" d="M314.5,0v22.3c0,6.1,3.9,9.6,9.6,9.6c5.7,0,9.6-3.9,9.6-9.6V0h7.4v22.3c0,9.6-7.4,16.2-17,16.2
			c-10,0-17-6.6-17-16.2V0C307.1,0,314.5,0,314.5,0z"/>
	</g>
</g>
</svg>
